<svg width="1920" height="420" viewBox="0 0 1920 420" fill="none" xmlns="http://www.w3.org/2000/svg">
  <!-- Background -->
  <rect width="1920" height="420" fill="#0d1117"/>
  
  <!-- Stars / Dust (minimalistic) -->
  <circle cx="200" cy="80" r="1.5" fill="#ffffff" fill-opacity="0.3"/>
  <circle cx="450" cy="120" r="1" fill="#ffffff" fill-opacity="0.5"/>
  <circle cx="1200" cy="90" r="2" fill="#ffffff" fill-opacity="0.4"/>
  <circle cx="1600" cy="150" r="1.5" fill="#ffffff" fill-opacity="0.2"/>
  <circle cx="800" cy="50" r="1" fill="#ffffff" fill-opacity="0.6"/>
  <circle cx="1800" cy="100" r="2" fill="#ffffff" fill-opacity="0.3"/>

  <!-- Distant Mountains / Dunes -->
  <path d="M0 250 Q 200 180 400 240 T 900 200 T 1400 260 T 1920 220 L 1920 420 L 0 420 Z" fill="#161b22"/>
  <path d="M0 280 Q 250 200 500 290 T 1100 220 T 1500 280 T 1920 240 L 1920 420 L 0 420 Z" fill="#21262d"/>
  <path d="M-50 350 Q 300 260 650 360 T 1300 270 T 1950 380 L 1950 420 L -50 420 Z" fill="#30363d"/>
  
  <!-- Glowing River / Path in center -->
  <path d="M700 420 Q 900 350 1100 260 Q 1150 240 1200 250 Q 800 320 600 420 Z" fill="#8b949e" fill-opacity="0.2"/>
  <path d="M750 420 Q 950 360 1120 265 Q 1140 250 1180 255 Q 850 330 650 420 Z" fill="#c9d1d9" fill-opacity="0.4"/>
  <path d="M800 420 Q 1000 370 1140 270 Q 1130 260 1160 260 Q 900 340 700 420 Z" fill="#ffffff" fill-opacity="0.7"/>

  <!-- Overlay Text: Typewriter / Monospace effect -->
  <text x="960" y="150" font-family="'Courier New', Courier, monospace" font-size="46" font-weight="bold" fill="#ffffff" text-anchor="middle" letter-spacing="4">Welcome to Ariel's GitHub</text>
  <text x="960" y="210" font-family="'Courier New', Courier, monospace" font-size="28" font-weight="normal" fill="#8b949e" text-anchor="middle" letter-spacing="8">&lt; / &gt;</text>
</svg>
